<?xml version="1.0" encoding="UTF-8" standalone="no"?><!DOCTYPE svg PUBLIC "-//W3C//DTD SVG 1.1//EN" "http://www.w3.org/Graphics/SVG/1.1/DTD/svg11.dtd"><svg width="100%" height="100%" viewBox="0 0 75 75" version="1.1" xmlns="http://www.w3.org/2000/svg" xmlns:xlink="http://www.w3.org/1999/xlink" xml:space="preserve" xmlns:serif="http://www.serif.com/" style="fill-rule:evenodd;clip-rule:evenodd;stroke-linejoin:round;stroke-miterlimit:1.41421;"><path d="M74.961,71.878c0,0.937 -0.312,1.717 -0.936,2.342c-0.625,0.468 -1.249,0.78 -2.186,0.78l-68.678,0c-0.781,0 -1.561,-0.312 -2.186,-0.78c-0.624,-0.625 -0.936,-1.405 -0.936,-2.342l0,-45.733l74.922,0l0,45.733Z" style="fill:#ffd15c;fill-rule:nonzero;"/><path d="M74.025,74.22c-0.625,0.468 -1.249,0.78 -2.186,0.78l-68.678,0c-0.781,0 -1.561,-0.312 -2.186,-0.78l36.525,-31.374l36.525,31.374Z" style="fill:#f8b64c;fill-rule:nonzero;"/><path d="M74.961,26.145l-10.614,7.648l-24.818,17.794c-1.249,0.936 -2.966,0.936 -4.214,0l-24.662,-17.794l-10.614,-7.648l10.614,-7.649l23.101,-16.545l1.717,-1.249c1.249,-0.936 2.966,-0.936 4.214,0l1.717,1.249l11.082,7.961l5.463,3.902l6.4,4.682l10.614,7.649Z" style="fill:#40596b;fill-rule:nonzero;"/><path d="M64.347,11.629l0,22.164l-24.818,17.794c-1.249,0.936 -2.966,0.936 -4.214,0l-24.662,-17.794l0,-28.72c0,-1.717 1.405,-3.122 3.122,-3.122l40.738,0l9.834,9.678Z" style="fill:#f2f2f2;fill-rule:nonzero;"/><path d="M54.67,9.131c0,1.405 1.092,2.498 2.497,2.498l7.18,0l-9.678,-9.678l0.001,7.18Z" style="fill:#cdd6e0;fill-rule:nonzero;"/><path d="M46.709,33.325l2.498,0c-0.781,1.717 -2.03,2.965 -3.747,3.902c-1.873,1.092 -4.214,1.561 -7.023,1.561c-2.654,0 -4.995,-0.469 -6.868,-1.405c-1.873,-0.937 -3.434,-2.185 -4.371,-4.058c-0.936,-1.717 -1.405,-3.746 -1.405,-5.775c0,-2.342 0.469,-4.371 1.561,-6.4c1.093,-2.029 2.498,-3.434 4.371,-4.371c1.873,-0.936 4.058,-1.404 6.399,-1.404c2.03,0 3.902,0.468 5.463,1.248c1.561,0.781 2.81,1.873 3.59,3.434c0.781,1.405 1.249,3.122 1.249,4.839c0,2.029 -0.624,3.902 -1.873,5.619c-1.561,2.185 -3.59,3.122 -6.087,3.122c-0.625,0 -1.249,-0.156 -1.561,-0.312c-0.313,-0.312 -0.625,-0.625 -0.625,-1.093c-0.936,0.937 -2.029,1.405 -3.278,1.405c-1.404,0 -2.497,-0.468 -3.277,-1.405c-0.937,-0.936 -1.405,-2.185 -1.405,-3.746c0,-1.873 0.468,-3.59 1.561,-5.307c1.248,-1.873 2.965,-2.81 4.995,-2.81c1.404,0 2.497,0.625 3.277,1.717l0.313,-1.404l3.277,0l-1.873,8.74c-0.156,0.625 -0.156,0.937 -0.156,1.093c0,0.156 0,0.312 0.156,0.468c0.156,0.156 0.156,0.156 0.313,0.156c0.312,0 0.936,-0.312 1.56,-0.78c0.781,-0.624 1.561,-1.405 2.03,-2.497c0.468,-1.093 0.78,-2.186 0.78,-3.278c0,-2.029 -0.78,-3.746 -2.185,-4.995c-1.405,-1.405 -3.434,-2.029 -6.088,-2.029c-2.185,0 -4.058,0.468 -5.619,1.405c-1.561,0.936 -2.653,2.185 -3.434,3.746c-0.78,1.561 -1.092,3.278 -1.092,5.151c0,1.717 0.468,3.278 1.248,4.682c0.937,1.405 2.03,2.498 3.59,3.122c1.561,0.625 3.278,0.937 5.307,0.937c1.874,0 3.591,-0.313 4.995,-0.781c1.405,-0.624 2.498,-1.405 3.434,-2.497Zm-13.267,-4.995c0,1.092 0.156,1.717 0.624,2.341c0.468,0.468 0.937,0.781 1.561,0.781c0.468,0 0.936,-0.157 1.249,-0.313c0.312,-0.156 0.624,-0.468 0.936,-0.78c0.468,-0.468 0.781,-1.249 1.093,-2.185c0.312,-0.937 0.468,-1.873 0.468,-2.654c0,-0.936 -0.156,-1.561 -0.624,-2.185c-0.469,-0.468 -0.937,-0.78 -1.561,-0.78c-0.625,0 -1.405,0.312 -1.873,0.78c-0.625,0.468 -1.093,1.249 -1.405,2.341c-0.312,0.937 -0.468,1.873 -0.468,2.654Z" style="fill:#ff7058;fill-rule:nonzero;"/></svg>