<?xml version="1.0" encoding="UTF-8" standalone="no"?><!DOCTYPE svg PUBLIC "-//W3C//DTD SVG 1.1//EN" "http://www.w3.org/Graphics/SVG/1.1/DTD/svg11.dtd"><svg width="100%" height="100%" viewBox="0 0 75 75" version="1.1" xmlns="http://www.w3.org/2000/svg" xmlns:xlink="http://www.w3.org/1999/xlink" xml:space="preserve" xmlns:serif="http://www.serif.com/" style="fill-rule:evenodd;clip-rule:evenodd;stroke-linejoin:round;stroke-miterlimit:1.41421;"><circle cx="37.5" cy="37.5" r="37.5" style="fill:#4e598f;"/><path d="M74.941,35.405l-17.663,-17.668c-0.293,0.089 -1.023,-0.251 -1.344,-0.187c-7.575,1.263 -14.899,0 -22.222,2.021c-3.535,1.01 -3.788,5.303 -5.05,8.08c-1.768,5.051 -1.515,10.606 -3.788,15.404c-1.515,3.283 -5.051,5.303 -6.313,9.091c-0.422,1.58 -0.397,3.571 -0.873,5.082l17.722,17.713c0.692,0.038 1.388,0.059 2.09,0.059c20.71,0 37.5,-16.79 37.5,-37.5c0,-0.703 -0.021,-1.401 -0.059,-2.095Z" style="fill:#364270;fill-rule:nonzero;"/><g><path d="M53.18,16.035l-31.36,0c-3.195,0 -5.785,2.59 -5.785,5.785l0,31.36c0,3.195 2.59,5.784 5.785,5.784l15.466,0l0.027,-15.34l-3.986,0c-0.518,0 -0.938,-0.419 -0.94,-0.937l-0.019,-4.945c-0.002,-0.52 0.42,-0.944 0.94,-0.944l3.979,0l0,-4.778c0,-5.545 3.386,-8.564 8.332,-8.564l4.06,0c0.519,0 0.94,0.421 0.94,0.941l0,4.169c0,0.52 -0.421,0.941 -0.94,0.941l-2.491,0.001c-2.69,0 -3.211,1.278 -3.211,3.154l0,4.137l5.911,0c0.563,0 1,0.492 0.934,1.051l-0.587,4.945c-0.055,0.473 -0.457,0.829 -0.933,0.829l-5.298,0l-0.027,15.341l9.203,0c3.194,0 5.784,-2.59 5.784,-5.785l0,-31.36c0.001,-3.195 -2.589,-5.785 -5.784,-5.785Z" style="fill:#fff;fill-rule:nonzero;"/><path d="M37.286,58.964l0.027,-15.34l-0.066,0l0,15.34l0.039,0Z" style="fill:#fff;fill-rule:nonzero;"/></g><path d="M53.18,16.035l-15.933,0l0,20.763l0.04,0l0,-4.778c0,-5.545 3.386,-8.564 8.332,-8.564l4.06,0c0.519,0 0.94,0.421 0.94,0.94l0,4.17c0,0.519 -0.421,0.94 -0.94,0.94l-2.491,0.002c-2.69,0 -3.211,1.278 -3.211,3.154l0,4.136l5.911,0c0.563,0 1,0.492 0.934,1.051l-0.587,4.945c-0.055,0.474 -0.457,0.83 -0.933,0.83l-5.298,0l-0.027,15.341l9.203,0c3.194,0 5.784,-2.59 5.784,-5.785l0,-31.36c0.001,-3.195 -2.589,-5.785 -5.784,-5.785Z" style="fill:#d1d1d1;fill-rule:nonzero;"/></svg>