<?xml version="1.0" encoding="UTF-8" standalone="no"?><!DOCTYPE svg PUBLIC "-//W3C//DTD SVG 1.1//EN" "http://www.w3.org/Graphics/SVG/1.1/DTD/svg11.dtd"><svg width="100%" height="100%" viewBox="0 0 75 75" version="1.1" xmlns="http://www.w3.org/2000/svg" xmlns:xlink="http://www.w3.org/1999/xlink" xml:space="preserve" xmlns:serif="http://www.serif.com/" style="fill-rule:evenodd;clip-rule:evenodd;stroke-linejoin:round;stroke-miterlimit:1.41421;"><circle cx="37.5" cy="37.5" r="37.5" style="fill:url(#_Linear1);"/><path d="M54.889,19.471c-4.48,0.567 -9.152,0.547 -13.854,0.1c-6.565,-0.505 -16.161,-3.536 -19.697,2.525c-5.679,9.703 -2.878,22.124 -1.554,33.117l19.736,19.733c19.1,-1.015 34.408,-16.32 35.425,-35.419l-20.056,-20.056Z" style="fill:url(#_Linear2);fill-rule:nonzero;"/><g><path d="M46.176,16.035l-17.352,0c-7.052,0 -12.789,5.737 -12.789,12.789l0,17.352c0,7.051 5.737,12.789 12.789,12.789l17.352,0c7.051,0 12.789,-5.737 12.789,-12.789l0,-17.352c0,-7.052 -5.737,-12.789 -12.789,-12.789Zm8.47,30.141c0,4.678 -3.792,8.47 -8.47,8.47l-17.352,0c-4.678,0 -8.47,-3.792 -8.47,-8.47l0,-17.352c0,-4.678 3.792,-8.47 8.47,-8.47l17.352,0c4.678,0 8.47,3.792 8.47,8.47l0,17.352Z" style="fill:#fff;fill-rule:nonzero;"/><path d="M37.5,26.397c-6.122,0 -11.103,4.981 -11.103,11.103c0,6.122 4.981,11.103 11.103,11.103c6.122,0 11.103,-4.981 11.103,-11.103c0,-6.122 -4.981,-11.103 -11.103,-11.103Zm0,17.887c-3.747,0 -6.785,-3.037 -6.785,-6.784c0,-3.747 3.038,-6.785 6.785,-6.785c3.747,0 6.784,3.038 6.784,6.785c0,3.747 -3.037,6.784 -6.784,6.784Z" style="fill:#fff;fill-rule:nonzero;"/></g><g><path d="M51.285,26.481c0,1.469 -1.192,2.66 -2.661,2.66c-1.469,0 -2.661,-1.191 -2.661,-2.66c0,-1.47 1.192,-2.661 2.661,-2.661c1.47,0 2.661,1.191 2.661,2.661Z" style="fill:#d1d1d1;fill-rule:nonzero;"/><path d="M46.176,16.035l-8.76,0l0,4.319l8.76,0c4.678,0 8.47,3.792 8.47,8.47l0,17.352c0,4.678 -3.792,8.47 -8.47,8.47l-8.76,0l0,4.319l8.76,0c7.051,0 12.789,-5.737 12.789,-12.789l0,-17.352c0,-7.052 -5.737,-12.789 -12.789,-12.789Z" style="fill:#d1d1d1;fill-rule:nonzero;"/><path d="M37.5,26.397c-0.028,0 -0.056,0.002 -0.084,0.002l0,4.318c0.028,0 0.056,-0.002 0.084,-0.002c3.747,0 6.784,3.038 6.784,6.785c0,3.747 -3.037,6.784 -6.784,6.784c-0.028,0 -0.056,-0.002 -0.084,-0.002l0,4.319c0.028,0 0.056,0.002 0.084,0.002c6.122,0 11.103,-4.981 11.103,-11.103c0,-6.122 -4.981,-11.103 -11.103,-11.103Z" style="fill:#d1d1d1;fill-rule:nonzero;"/></g><defs><linearGradient id="_Linear1" x1="0" y1="0" x2="1" y2="0" gradientUnits="userSpaceOnUse" gradientTransform="matrix(75,0,0,75,0,37.5)"><stop offset="0" style="stop-color:#833ab4;stop-opacity:1"/><stop offset="0.5" style="stop-color:#fd1d1d;stop-opacity:1"/><stop offset="1" style="stop-color:#fcb045;stop-opacity:1"/></linearGradient><linearGradient id="_Linear2" x1="0" y1="0" x2="1" y2="0" gradientUnits="userSpaceOnUse" gradientTransform="matrix(57.03,0,0,57.03,17.9149,46.6566)"><stop offset="0" style="stop-color:#833ab4;stop-opacity:1"/><stop offset="0.5" style="stop-color:#fd1d1d;stop-opacity:1"/><stop offset="1" style="stop-color:#fcb045;stop-opacity:1"/></linearGradient></defs></svg>