<?xml version="1.0" encoding="UTF-8" standalone="no"?>
<!DOCTYPE svg PUBLIC "-//W3C//DTD SVG 1.1//EN" "http://www.w3.org/Graphics/SVG/1.1/DTD/svg11.dtd">
<svg width="100%" height="100%" viewBox="0 0 512 512" version="1.1" xmlns="http://www.w3.org/2000/svg" xmlns:xlink="http://www.w3.org/1999/xlink" xml:space="preserve" xmlns:serif="http://www.serif.com/" style="fill-rule:evenodd;clip-rule:evenodd;stroke-linejoin:round;stroke-miterlimit:1.41421;">
    <circle cx="256" cy="256" r="256" style="fill:url(#_Linear1);"/>
    <path d="M374.71,132.922C344.123,136.794 312.231,136.659 280.135,133.603C235.313,130.155 169.805,109.468 145.67,150.842C106.898,217.078 126.021,301.877 135.056,376.92L269.793,511.628C400.181,504.705 504.679,400.221 511.624,269.838L374.71,132.922Z" style="fill:url(#_Linear2);fill-rule:nonzero;"/>
    <g>
        <path d="M315.227,109.468L196.772,109.468C148.632,109.468 109.468,148.632 109.468,196.772L109.468,315.227C109.468,363.365 148.632,402.532 196.773,402.532L315.228,402.532C363.366,402.532 402.533,363.367 402.533,315.227L402.533,196.772C402.532,148.632 363.367,109.468 315.227,109.468ZM373.05,315.228C373.05,347.162 347.162,373.05 315.228,373.05L196.773,373.05C164.839,373.05 138.951,347.162 138.951,315.228L138.951,196.773C138.951,164.839 164.839,138.95 196.773,138.95L315.228,138.95C347.162,138.95 373.05,164.84 373.05,196.773L373.05,315.228Z" style="fill:white;fill-rule:nonzero;"/>
        <path d="M256,180.202C214.206,180.202 180.202,214.206 180.202,256C180.202,297.791 214.206,331.795 256,331.795C297.794,331.795 331.795,297.794 331.795,256C331.795,214.206 297.794,180.202 256,180.202ZM256,302.313C230.421,302.313 209.684,281.58 209.684,256C209.684,230.42 230.421,209.684 256,209.684C281.579,209.684 302.313,230.419 302.313,256C302.313,281.579 281.579,302.313 256,302.313Z" style="fill:white;fill-rule:nonzero;"/>
    </g>
    <g>
        <path d="M350.103,180.774C350.103,190.804 341.971,198.937 331.94,198.937C321.91,198.937 313.777,190.804 313.777,180.774C313.777,170.743 321.91,162.611 331.94,162.611C341.973,162.611 350.103,170.741 350.103,180.774Z" style="fill:rgb(209,209,209);fill-rule:nonzero;"/>
        <path d="M315.228,109.468L255.426,109.468L255.426,138.95L315.228,138.95C347.162,138.95 373.05,164.84 373.05,196.773L373.05,315.228C373.05,347.162 347.162,373.05 315.228,373.05L255.426,373.05L255.426,402.532L315.228,402.532C363.366,402.532 402.532,363.367 402.532,315.227L402.532,196.772C402.532,148.632 363.367,109.468 315.228,109.468Z" style="fill:rgb(209,209,209);fill-rule:nonzero;"/>
        <path d="M256,180.202C255.807,180.202 255.619,180.216 255.426,180.216L255.426,209.698C255.617,209.696 255.807,209.684 256,209.684C281.579,209.684 302.313,230.419 302.313,256C302.313,281.579 281.58,302.313 256,302.313C255.807,302.313 255.617,302.301 255.426,302.299L255.426,331.781C255.619,331.783 255.807,331.795 256,331.795C297.794,331.795 331.795,297.793 331.795,256C331.795,214.206 297.794,180.202 256,180.202Z" style="fill:rgb(209,209,209);fill-rule:nonzero;"/>
    </g>
    <defs>
        <linearGradient id="_Linear1" x1="0" y1="0" x2="1" y2="0" gradientUnits="userSpaceOnUse" gradientTransform="matrix(512,0,0,512,0,256)"><stop offset="0" style="stop-color:rgb(131,58,180);stop-opacity:1"/><stop offset="0.5" style="stop-color:rgb(253,29,29);stop-opacity:1"/><stop offset="1" style="stop-color:rgb(252,176,69);stop-opacity:1"/></linearGradient>
        <linearGradient id="_Linear2" x1="0" y1="0" x2="1" y2="0" gradientUnits="userSpaceOnUse" gradientTransform="matrix(389.325,0,0,386.238,122.299,318.509)"><stop offset="0" style="stop-color:rgb(131,58,180);stop-opacity:1"/><stop offset="0.5" style="stop-color:rgb(253,29,29);stop-opacity:1"/><stop offset="1" style="stop-color:rgb(252,176,69);stop-opacity:1"/></linearGradient>
    </defs>
</svg>
