<?xml version="1.0" encoding="UTF-8" standalone="no"?><!DOCTYPE svg PUBLIC "-//W3C//DTD SVG 1.1//EN" "http://www.w3.org/Graphics/SVG/1.1/DTD/svg11.dtd"><svg width="100%" height="100%" viewBox="0 0 75 75" version="1.1" xmlns="http://www.w3.org/2000/svg" xmlns:xlink="http://www.w3.org/1999/xlink" xml:space="preserve" xmlns:serif="http://www.serif.com/" style="fill-rule:evenodd;clip-rule:evenodd;stroke-linejoin:round;stroke-miterlimit:1.41421;"><path d="M75,18.901c0,-10.439 -10.656,-18.901 -23.799,-18.901c-13.144,0 -23.799,8.462 -23.799,18.901c0,9.325 8.505,17.073 19.691,18.619l-0.034,0c0.587,3.606 -0.496,7.434 -3.251,10.215c5.911,0 10.79,-4.452 11.531,-10.214l-0.034,0c11.187,-1.545 19.695,-9.293 19.695,-18.62Z" style="fill:#55d24d;fill-rule:nonzero;"/><g><circle cx="42.812" cy="18.9" r="1.667" style="fill:#fffaff;"/><circle cx="59.59" cy="18.9" r="1.667" style="fill:#fffaff;"/><circle cx="51.202" cy="18.9" r="1.667" style="fill:#fffaff;"/></g><path d="M51.269,60.316c-3.602,-3.602 -7.46,-6.634 -7.46,-6.634l-5.621,5.62l-22.49,-22.49l5.62,-5.622c0,0 -3.031,-3.857 -6.634,-7.459c-3.602,-3.602 -7.459,-6.634 -7.459,-6.634c0,0 -6.735,6.195 -7.188,11.11c-0.606,6.577 6.356,18.537 17.288,29.468c10.931,10.932 22.891,17.894 29.468,17.289c4.914,-0.454 11.11,-7.189 11.11,-7.189c0,0 -3.032,-3.858 -6.634,-7.459Z" style="fill:#1a1a1a;fill-rule:nonzero;"/></svg>