<?xml version="1.0" encoding="UTF-8" standalone="no"?>
<!DOCTYPE svg PUBLIC "-//W3C//DTD SVG 1.1//EN" "http://www.w3.org/Graphics/SVG/1.1/DTD/svg11.dtd">
<svg width="100%" height="100%" viewBox="0 0 512 512" version="1.1" xmlns="http://www.w3.org/2000/svg" xmlns:xlink="http://www.w3.org/1999/xlink" xml:space="preserve" xmlns:serif="http://www.serif.com/" style="fill-rule:evenodd;clip-rule:evenodd;stroke-linejoin:round;stroke-miterlimit:1.41421;">
    <path d="M512,129.029C512,57.77 439.257,0 349.533,0C259.802,0 187.066,57.77 187.066,129.029C187.066,192.692 245.122,245.583 321.485,256.137L321.254,256.137C325.261,280.751 317.868,306.886 299.063,325.87C339.412,325.87 372.72,295.481 377.779,256.141L377.548,256.141C453.921,245.596 512,192.701 512,129.029Z" style="fill:rgb(85,210,77);fill-rule:nonzero;"/>
    <g>
        <circle cx="292.261" cy="129.024" r="11.378" style="fill:rgb(255,250,255);"/>
        <circle cx="406.801" cy="129.024" r="11.378" style="fill:rgb(255,250,255);"/>
        <circle cx="349.536" cy="129.024" r="11.378" style="fill:rgb(255,250,255);"/>
    </g>
    <path d="M349.998,411.754C325.408,387.165 299.072,366.466 299.072,366.466L260.7,404.838L107.162,251.3L145.534,212.927C145.534,212.927 124.836,186.591 100.246,162.001C75.656,137.412 49.32,116.713 49.32,116.713C49.32,116.713 3.343,159.01 0.25,192.558C-3.887,237.462 43.645,319.103 118.271,393.73C192.897,468.355 274.538,515.887 319.442,511.751C352.989,508.657 395.287,462.68 395.287,462.68C395.287,462.68 374.588,436.342 349.998,411.754Z" style="fill:white;fill-rule:nonzero;"/>
</svg>
