<svg height="512pt" viewBox="0 -46 512 512" width="512pt" xmlns="http://www.w3.org/2000/svg"><path d="m467 90h-155.003906l-38.730469 121.039062-28.875 204.570313c2.714844 2.714844 6.464844 4.390625 10.609375 4.390625h212c24.8125 0 45-20.1875 45-45v-240c0-24.8125-20.1875-45-45-45zm0 0" fill="#c6e2e7"/><path d="m273.265625 211.039062-33.265625 103.960938v90c0 4.144531 1.675781 7.894531 4.390625 10.609375l142.648437-91.660156zm0 0" fill="#6b77e8"/><path d="m389.398438 310.800781-83.699219-278.699219c-5.699219-19.203124-23.101563-32.101562-42.898438-32.101562h-217.800781c-24.902344 0-45 20.097656-45 45v240c0 24.898438 20.097656 45 45 45h330c4.800781 0 9.300781-2.101562 12-6 3-3.902344 3.601562-8.699219 2.398438-13.199219zm0 0" fill="#979fef"/><path d="m387 324c-2.699219 3.898438-7.199219 6-12 6h-210v-330h97.800781c19.796875 0 37.199219 12.898438 42.898438 32.101562l83.699219 278.699219c1.203124 4.5.601562 9.296875-2.398438 13.199219zm0 0" fill="#7984eb"/><path d="m270 165c0 57.898438-47.101562 105-105 105s-105-47.101562-105-105 47.101562-105 105-105c34.199219 0 66.300781 16.800781 85.800781 44.699219 4.800781 6.601562 3.300781 15.898437-3.601562 20.699219-6.597657 4.800781-16.199219 3.300781-21-3.597657-13.796875-19.800781-36.898438-31.800781-61.199219-31.800781-41.398438 0-75 33.601562-75 75s33.601562 75 75 75c36.300781 0 66.597656-25.800781 73.5-60h-43.5c-8.402344 0-15-6.601562-15-15 0-8.402344 6.597656-15 15-15h60c8.402344 0 15 6.597656 15 15zm0 0" fill="#deecf1"/><g fill="#c6e2e7"><path d="m165 90v-30c34.199219 0 66.300781 16.800781 85.800781 44.699219 4.800781 6.601562 3.300781 15.898437-3.601562 20.699219-6.597657 4.800781-16.199219 3.300781-21-3.597657-13.796875-19.800781-36.898438-31.800781-61.199219-31.800781zm0 0"/><path d="m270 165c0 57.898438-47.101562 105-105 105v-30c36.300781 0 66.597656-25.800781 73.5-60h-43.5c-8.402344 0-15-6.601562-15-15 0-8.402344 6.597656-15 15-15h60c8.402344 0 15 6.597656 15 15zm0 0"/></g></svg>