<?xml version="1.0" encoding="UTF-8" standalone="no"?><!DOCTYPE svg PUBLIC "-//W3C//DTD SVG 1.1//EN" "http://www.w3.org/Graphics/SVG/1.1/DTD/svg11.dtd"><svg width="100%" height="100%" viewBox="0 0 75 75" version="1.1" xmlns="http://www.w3.org/2000/svg" xmlns:xlink="http://www.w3.org/1999/xlink" xml:space="preserve" xmlns:serif="http://www.serif.com/" style="fill-rule:evenodd;clip-rule:evenodd;stroke-linejoin:round;stroke-miterlimit:1.41421;"><circle cx="37.5" cy="37.5" r="37.5" style="fill:#65a2d9;"/><path d="M57.57,20.409c-3.911,3.394 -7.8,6.368 -10.979,10.525c-7.82,9.43 -17.375,22.808 -30.379,20.814l23.234,23.202c19.696,-1.007 35.375,-17.211 35.55,-37.115l-17.426,-17.426Z" style="fill:#3a7ca5;fill-rule:nonzero;"/><path d="M58.282,23.799c-0.954,0.424 -1.944,0.757 -2.96,0.999c1.12,-1.064 1.961,-2.395 2.436,-3.88c0.136,-0.424 -0.325,-0.79 -0.708,-0.563c-1.413,0.838 -2.936,1.467 -4.525,1.869c-0.092,0.023 -0.187,0.035 -0.283,0.035c-0.29,0 -0.571,-0.107 -0.792,-0.302c-1.691,-1.491 -3.866,-2.311 -6.124,-2.311c-0.978,0 -1.964,0.152 -2.932,0.452c-3.001,0.931 -5.317,3.407 -6.044,6.461c-0.272,1.145 -0.346,2.292 -0.219,3.408c0.014,0.128 -0.046,0.217 -0.083,0.259c-0.066,0.074 -0.159,0.116 -0.256,0.116c-0.01,0 -0.022,0 -0.033,-0.001c-6.569,-0.611 -12.493,-3.776 -16.68,-8.912c-0.213,-0.262 -0.623,-0.23 -0.793,0.062c-0.82,1.407 -1.253,3.016 -1.253,4.653c0,2.509 1.008,4.873 2.759,6.597c-0.736,-0.174 -1.449,-0.449 -2.111,-0.817c-0.321,-0.178 -0.714,0.051 -0.719,0.417c-0.045,3.728 2.137,7.044 5.406,8.538c-0.066,0.001 -0.132,0.002 -0.198,0.002c-0.518,0 -1.043,-0.05 -1.559,-0.149c-0.361,-0.068 -0.664,0.274 -0.552,0.623c1.061,3.313 3.914,5.755 7.327,6.309c-2.833,1.902 -6.132,2.905 -9.565,2.905l-1.071,0c-0.33,0 -0.609,0.215 -0.693,0.534c-0.082,0.314 0.07,0.647 0.351,0.81c3.869,2.252 8.283,3.442 12.765,3.442c3.923,0 7.593,-0.778 10.908,-2.314c3.039,-1.408 5.724,-3.42 7.981,-5.981c2.103,-2.385 3.747,-5.139 4.888,-8.185c1.086,-2.903 1.661,-6.001 1.661,-8.958l0,-0.141c0,-0.475 0.214,-0.922 0.589,-1.226c1.422,-1.155 2.66,-2.514 3.68,-4.039c0.27,-0.403 -0.155,-0.908 -0.598,-0.712Z" style="fill:#fff;fill-rule:nonzero;"/><path d="M58.282,23.799c-0.954,0.424 -1.944,0.757 -2.96,0.999c1.12,-1.064 1.961,-2.395 2.436,-3.88c0.136,-0.424 -0.325,-0.79 -0.708,-0.563c-1.413,0.838 -2.936,1.467 -4.525,1.869c-0.092,0.023 -0.187,0.035 -0.283,0.035c-0.29,0 -0.57,-0.107 -0.792,-0.302c-1.691,-1.491 -3.866,-2.311 -6.124,-2.311c-0.977,0 -1.964,0.152 -2.932,0.452c-2.098,0.651 -3.859,2.058 -4.978,3.889l0,30.099c0.911,-0.297 1.8,-0.645 2.665,-1.046c3.039,-1.407 5.724,-3.419 7.982,-5.98c2.103,-2.386 3.747,-5.14 4.887,-8.186c1.087,-2.902 1.661,-6.001 1.661,-8.958l0,-0.141c0,-0.475 0.215,-0.921 0.59,-1.226c1.422,-1.155 2.66,-2.513 3.68,-4.039c0.269,-0.402 -0.156,-0.907 -0.599,-0.711Z" style="fill:#d1d1d1;fill-rule:nonzero;"/></svg>