<?xml version="1.0" encoding="UTF-8" standalone="no"?><!DOCTYPE svg PUBLIC "-//W3C//DTD SVG 1.1//EN" "http://www.w3.org/Graphics/SVG/1.1/DTD/svg11.dtd"><svg width="100%" height="100%" viewBox="0 0 75 75" version="1.1" xmlns="http://www.w3.org/2000/svg" xmlns:xlink="http://www.w3.org/1999/xlink" xml:space="preserve" xmlns:serif="http://www.serif.com/" style="fill-rule:evenodd;clip-rule:evenodd;stroke-linejoin:round;stroke-miterlimit:1.41421;"><circle cx="37.5" cy="37.5" r="37.5" style="fill:#d22215;"/><path d="M56.376,24.952c-1.125,0.343 -2.298,0.638 -3.472,0.932c-8.333,1.767 -19.444,-3.031 -24.242,4.798c-4.002,6.224 -5.265,14.014 -9.817,19.579l24.314,24.314c16.182,-2.449 28.97,-15.239 31.417,-31.422l-18.2,-18.201Z" style="fill:#a81411;fill-rule:nonzero;"/><path d="M50.046,22.314l-25.092,0c-4.923,0 -8.914,3.991 -8.914,8.914l0,12.544c0,4.923 3.991,8.914 8.914,8.914l25.092,0c4.923,0 8.914,-3.991 8.914,-8.914l0,-12.544c0,-4.923 -3.991,-8.914 -8.914,-8.914Zm-6.028,15.796l-11.737,5.598c-0.313,0.149 -0.674,-0.079 -0.674,-0.425l0,-11.545c0,-0.352 0.371,-0.579 0.684,-0.421l11.736,5.948c0.35,0.177 0.344,0.677 -0.009,0.845Z" style="fill:#fff;fill-rule:nonzero;"/><path d="M50.046,22.314l-12.799,0l0,11.515l6.781,3.436c0.349,0.177 0.343,0.677 -0.01,0.845l-6.771,3.229l0,11.347l12.799,0c4.923,0 8.914,-3.991 8.914,-8.914l0,-12.544c0,-4.923 -3.991,-8.914 -8.914,-8.914Z" style="fill:#d1d1d1;fill-rule:nonzero;"/></svg>